<svg width="64" height="64" viewBox="0 0 64 64" fill="none" xmlns="http://www.w3.org/2000/svg">
<path d="M53.0599 50.9399L40.7799 38.6599C50.1199 27.8099 42.0899 10.3799 27.6499 10.4999C23.1022 10.5025 18.7416 12.3103 15.5259 15.5259C12.3103 18.7416 10.5025 23.1022 10.4999 27.6499C10.3799 42.0899 27.8099 50.1199 38.6599 40.7799L50.9399 53.0599C51.2242 53.3248 51.6003 53.4691 51.9889 53.4622C52.3775 53.4554 52.7483 53.298 53.0231 53.0231C53.298 52.7483 53.4554 52.3775 53.4622 51.9889C53.4691 51.6003 53.3248 51.2242 53.0599 50.9399V50.9399ZM13.4999 27.6499C13.5052 23.8987 14.9977 20.3027 17.6502 17.6502C20.3027 14.9977 23.8987 13.5052 27.6499 13.4999C46.4199 14.2799 46.4099 41.0199 27.6499 41.7999C23.8987 41.7946 20.3027 40.3021 17.6502 37.6496C14.9977 34.9971 13.5052 31.4011 13.4999 27.6499V27.6499Z" fill="url(#paint0_linear_122:2348)" id="id_105"></path>
<defs>
<linearGradient id="paint0_linear_122:2348" x1="10.4999" y1="31.9999" x2="53.5099" y2="31.9999" gradientUnits="userSpaceOnUse">
<stop stop-color="#6031A5" id="id_106"></stop>
<stop offset="0.63" stop-color="#658ed6" id="id_107"></stop>
<stop offset="1" stop-color="#331974" id="id_108"></stop>
</linearGradient>
</defs>
</svg>